<svg xmlns="http://www.w3.org/2000/svg" width="1573.3333" height="1589.3333" version="1.0" viewBox="0 0 1180 1192"><path d="M544.9 12.1c-34.1 2.2-96.7 15-135 27.5-49.1 16-99.7 40.5-141.4 68.4-44.2 29.5-96.3 74.7-119.7 103.6-32.9 40.9-37.3 46.7-48.5 63.4-19 28.5-34.2 55.6-35.4 63.1-.4 2.6-3.7 11-7.2 18.6-3.5 7.6-8.1 18.3-10.2 23.8-2 5.5-4.5 11.6-5.5 13.5-3.4 6.6-9.1 24.4-14.5 45-3 11.3-6.8 25.2-8.5 31-1.7 5.8-4.4 19.3-6 30-1.7 10.7-3.5 22.2-4.1 25.5-2.8 15-4.5 50.1-4.3 87.5.1 18.4.8 31.2 2.8 51.5 2.8 28.4 4.2 37.2 10.1 65 4.6 22 4.5 21.5 12.2 45.5 10.8 33.9 15.8 47 31 81.1 14.7 33.4 22.8 48.3 40.3 74.4 30.9 46.2 83.2 101.2 128.5 135.1 64.3 48.2 132.7 80.9 212.5 101.8 20.3 5.3 59.7 12.4 78 14.1 3.6.3 13 1.2 21 2 38 3.7 102.2.6 147-7.2 45-7.8 84.9-18.4 116.5-31.2 63.5-25.5 113.1-54.9 164.5-97.4 26.7-22.1 65.2-62.5 82.3-86.5 3.8-5.3 10.7-14.7 15.2-20.7 9.1-12.3 29-43 35.2-54.5 10.4-19.2 23.8-46.3 27-54.5 1.9-4.9 7-18 11.3-29 9.9-25.2 15.5-43.9 22-73.6 11.1-50.6 14.3-79.5 14.4-129.4 0-44.3-3.4-74.9-13.5-124-12-58-45.1-138.2-78.1-189-19.6-30.2-22.3-33.9-38.3-54-18-22.5-24.9-30-49.5-53.9-51.2-49.7-106.2-86.9-171.3-115.7-36.2-16-83.5-31.2-122.7-39.3C656.7 14 589.8 9.1 544.9 12.1zm72.6 7.9c60.8 3.4 112.4 13.8 169.5 34.3 39.6 14.3 88.2 38.6 120.6 60.3 14.3 9.6 41.4 29.5 49.9 36.8 49.7 42.1 84.3 80.1 115.2 126.6 15.1 22.7 15 22.5 39.4 70 26.7 51.7 47.7 122.6 55.3 187 3.6 30.1 4.5 77.1 2.1 108-2.5 32.6-4.9 47.5-14 87.5-6.5 28.9-7.1 30.9-22.9 73.5-9.5 25.8-13.1 34-23.2 53.8-16.4 32-43 74.6-56.1 89.8-4.3 5-10 11.8-12.8 15-35.7 42.1-53 59.6-85.6 86.5-8.9 7.4-39.8 29.8-52.4 38-42.7 27.9-99.3 53.2-153.4 68.5-11.5 3.3-47.2 10.8-70.5 15l-10 1.7-1.5-2.2c-.8-1.3-3.4-6.6-5.7-11.9-2.3-5.4-6.7-14.5-9.8-20.3-5.8-10.9-13.6-29.2-18.8-43.9-1.7-4.7-4.8-12.5-6.9-17.4-5.5-12.9-4.4-14.1 11.1-11.4 8.3 1.4 15.1.1 18.9-3.6 2.2-2.2 2.2-2.6 1.1-7.2-.7-2.7-1.5-10.1-1.9-16.4-.5-9.8-.9-12-2.9-14.7-3-4.3-4.1-12.3-1.8-14.2 1.4-1.2 2.9-1.2 8.9-.1 3.9.7 13.2 1.3 20.5 1.3 11.8 0 13.7-.3 16-2 4-2.9 4.8-7.6 2.5-14.3-1.6-4.8-2.4-5.8-6.5-8-5.4-2.8-5.5-3.1-3.3-13 2.8-12.9 2-20.9-4.6-42-1.6-5.2-4-16.3-5.4-24.5-1.3-8.3-3.1-17.3-3.9-20-2-6.4-4.5-22.9-5.7-37-1.4-17.8-4.5-36.5-7.3-44-1.6-4.4-2.6-9.1-2.6-12.6 0-7.4-3.6-28-5.9-34.4-2.5-6.7-4.5-22.3-3.7-28.2.4-2.6.8-6.2.9-7.8.2-1.7.9-4.1 1.6-5.5 2.9-5.4 10.5-17.6 18.4-29.5 21.8-33.1 23.5-36.2 25.3-47.2 2.4-15.2 1.9-25-2.5-45-2.2-9.8-4.4-19.1-5.1-20.7-.6-1.6-2-9.7-3.1-18-2.2-16.5-1.9-28.2.8-36.9 1.1-3.3 1.4-7.4 1.1-13.5-.5-9.5-1.9-13.3-7.4-19.4-6.3-7.1-9.3-16-6.1-18.6.6-.5 3.1-1.5 5.4-2.1 5.7-1.5 8.5-4 8.5-7.6.2-8.1.1-8.3-7.8-14.1-5.4-4-8.1-6.8-9.4-9.7-1.9-4.3-2-3.6 2.1-15.9 1-3.1.9-4.4-.4-8-2.3-5.8-2.1-10 .3-13.1 3.3-4.1 5-3 25.8 16.9 7.6 7.2 8.3 8.3 7.3 10.2-1.6 3.1-1.4 6.8.9 11.4 1.1 2.3 1.8 5 1.5 5.9-1.5 4.6 8.5 6.6 17.5 3.4 6.2-2.2 6.7-1.4 7.1 12 .3 7.3.9 11.9 1.7 12.7.9.9 1.2-1 1.2-9.4 0-5.9.4-11.8 1-13.2.9-2.4 8.2-6.6 13.9-7.9 3.9-1 7.5 1.7 10.1 7.5 1.3 2.9 2.9 6 3.5 6.8 1.2 1.6 4 9.9 8.1 23.7 1.3 4.5 4.2 12.1 6.5 17 2.2 4.8 5.5 12.6 7.2 17.3 1.9 5.3 4.1 9.5 5.9 11.2 2.1 2 3 3.9 3.3 7 .4 4.7 1.5 9 3.9 15.7 2 5.4 2 8.4.1 12.1-1.1 2.1-1.2 3.6-.5 5.5 1.5 4 1.3 6.8-.5 6.1-1.1-.4-1.5.1-1.5 1.9 0 1.3-1 3.1-2.2 3.9-1.9 1.3-1.9 1.7-.7 3.2 1.1 1.3 1.3 4.4 1 13.1-.2 8.8 0 12.2 1.2 14.6.8 1.8 2.3 5.1 3.3 7.4 2.1 5.3 3.8 5.6 3 .5-.6-4.1-.9-12.4-.7-19 .1-3 .5-4.2 1.3-4 1.6.6 3.1 8.8 1.9 10.2-.5.7-.5 4.8.2 10.1.8 7.1 1.5 9.3 3.2 10.7 3 2.4 5.1 11 3.5 14.8-1.7 4-3.8 3.8-5.6-.6-1.5-3.7-1.6-3.7-3.5-1.7-2.4 2.4-7.8 10.2-11.5 16.6-1.5 2.6-3.2 4.6-3.8 4.4-1.7-.5-1.9-6.4-.6-15.9 1-7.7 1-9.4-.6-14-3.9-12-8.5-18-10-13.1-.3 1-1.4 3.7-2.6 6l-2 4.2 3.6 5.6c4 5.9 4.7 6.3 6.6 4 1.9-2.3 3.3-.4 2.1 2.8-.6 1.4-2.6 4.4-4.6 6.6-3.7 4.1-5.6 10.3-3.6 11.5.6.4 1.1 1.6 1.1 2.7s1.3 3.4 2.9 5c2.8 2.7 3.4 2.9 11.3 2.9 7.4 0 8.8-.3 12.3-2.7 3.3-2.3 5.1-2.8 10.5-2.8 8.4 0 13.4-2.8 15.1-8.4 1.4-4.6-.3-34-2.6-46.6-.9-4.4-2.6-15-3.9-23.5-1.6-11-4.1-21.3-8.4-35.5-3.3-11-7.2-25.6-8.7-32.5-3.4-15.6-13.1-45.5-19.7-60.7-5.1-11.7-8.8-23.4-8.8-27.7 0-1.3 1-3.1 2.3-4 1.2-.8 3.5-2.6 5-3.9l2.8-2.4-2.5-3.8c-1.4-2.1-2.6-4.1-2.6-4.5 0-.3-2.7-1.9-6-3.5s-6-3.4-6-4c0-.5 1.1-2.6 2.4-4.5 1.3-1.9 2.6-4.5 3-5.7.9-2.8-2.4-9.3-6.1-12.3-2.4-1.8-3.5-2.1-8.3-1.5-3 .4-6.2.7-7.1.8-2.6.3-16.5-21.5-28.9-45.3-14.7-28.3-21.4-39.3-25.6-42.2-3.2-2.2-5.4-6.1-10.9-19.8-3.7-8.9-15.4-17.9-25.5-19.6-1.9-.3-6.6-1.2-10.4-2.1-5.1-1.2-8.9-1.4-15-.8-9.4.8-15.9.8-35.1-.2-16.7-1-20.8-2.5-21.3-8.3-.3-3.1.2-4 4.3-7.6 4.2-3.6 4.7-4.6 5.3-9.5.7-5.1 1-5.6 5.5-8.4 4.2-2.7 4.7-3.3 4.4-6.3-.3-3.7.3-4 2.7-1.3 1.7 1.9 1.8 1.9 5.1-.1 4.3-2.5 4.6-4.2 4.8-29.8l.2-19.5-6.8-13.8c-3.7-7.6-7.2-14.9-7.7-16.3-.6-1.6-1.7-2.4-3.3-2.4-1.4 0-3.9-1.5-6.1-3.6-2-1.9-4.1-3.2-4.6-2.9-1.5.9-1.2 2.1 1.4 5.2 2.4 2.9 4.5 8.3 3.2 8.3-.4 0-2.7-.5-5.2-1.1-4.2-1.1-4.9-.9-9.7 1.7-2.9 1.5-7.6 4.4-10.6 6.3-2.9 2-6.4 4.3-7.7 5.1-1.3.8-2.4 2.3-2.4 3.2 0 1-.4 1.8-1 1.8-.5 0-.7-.7-.4-1.5.8-1.9-.4-1.9-5.1.1-2 .8-4 1.3-4.2 1-.3-.3-1.4-.1-2.5.5-2.6 1.4-1.1 3.2 2.2 2.5 2.5-.4 3.7.3 9.3 6.1l6.5 6.7 4.1-1.3c3.6-1 4.1-1.5 4.1-4.2 0-3.9 1.9-3.4 4.2 1.2 2.3 4.4 2.3 10.1 0 12.9l-1.8 2.2-4.9-3.1c-2.7-1.7-5.6-3.1-6.5-3.1-.9 0-4.5-1.8-7.9-4-3.4-2.2-12.2-6.9-19.4-10.4-14.5-7.1-22.6-11.8-30.2-17.6-2.7-2.1-9.3-6.1-14.5-9-8.7-4.9-17-11.7-17-14 0-1.6 7.2-1.2 12.6.7 2.7.9 7.5 3.2 10.6 5 5.4 3.2 10.6 4.4 9.3 2.3-1.8-2.9-25.1-12-30.6-12-5.8 0-6.1 4.5-.5 10.9 1.7 2 4.4 5.3 5.9 7.3 1.9 2.6 5.4 5.1 11.9 8.3 5.1 2.6 9.4 4.8 9.6 5 .2.2-1.2 2.5-3.2 5.1-2.8 3.7-3.6 5.6-3.6 9 0 6.3-1.2 8.6-6.6 12.1-5.8 3.7-9.9 7.9-10.9 11.1-.5 1.8.1 3 3 5.7 3.1 3 3.5 3.7 2.5 5.6-.7 1.2-.9 3.5-.6 5.3 1.6 9.2 1.7 9.5 6.1 11.6 2.3 1.1 4.9 1.8 5.7 1.5 2.3-.9 3.9-5.2 4.7-12.7.6-5.6 1.2-7.3 3.6-9.8 1.6-1.6 3.8-3.2 4.9-3.5 4.5-1.3 9.6-3.9 9.6-4.9-.1-1.1-8.9-7.5-12.1-8.8-2.4-.9-2.4-2 .1-4.3 2.9-2.6 2.5-4.3-1.7-6.2-2.6-1.2-3.9-2.6-4.1-4.2l-.4-2.3 4.4 2.5c5.3 3.2 7.9 6.5 8.4 10.6.2 1.8.8 4.1 1.4 5.1 1.2 2.3 5 2.7 5 .6 0-4.1 4.4-.8 14.4 10.9 3 3.5 3.1 3.8 1.1 5.5-2 1.7-1.9 2.6.7 6.2 2.1 3 2.2 3 9.4 2.6 4-.3 7.7-.1 8.3.5.5.5 1.4.6 2 .3 1.7-1.1 1.3-3.4-.8-4.6-1.1-.5-2.8-3.6-3.9-7s-1.7-5.9-1.3-5.8c.3.2 3.1 1.5 6.2 3 4 1.8 5.8 3.3 6.2 5 .7 2.8-.9 9.8-2.3 9.8-2.1 0-4.8 4.5-5.5 8.8-.8 5.3-1.9 7-5.4 8.3-1.8.8-2.1 1.3-1.3 2.1.7.7 1.2 2.4 1.2 3.9 0 1.6.9 3.2 2.3 4.2l2.2 1.5-4.5 4.7c-2.5 2.6-5.8 5.3-7.4 6.2-2.6 1.3-3.3 1.3-7.5-.3-2.7-1-7.6-1.8-12.1-1.9-11.5-.2-30.5-4.2-34.1-7.2-3.5-3-3.6-4.3-.4-7.3 3-2.8 3.2-5.8.7-9.1-1-1.3-2.2-3.2-2.5-4.2-1.1-3-2.7-.9-2.7 3.6 0 2.3-.7 6.4-1.5 9.2-3 9.8-.4 13 14 17.5 16.7 5.2 16.1 4.8 16.7 12.5.5 5.2 1.6 8.6 5.3 16.1 5.2 10.6 5.4 9.2-2.4 17.9-2.7 3-8.2 7.2-13.8 10.5-5.2 3-11.6 7.3-14.2 9.5-4.8 4-8.6 8.3-7.9 9 .1.2 3.2-1.4 6.8-3.6 3.6-2.1 6.8-3.9 7.3-3.9 1.8 0 .4 2-3.3 4.5-4.2 2.9-4.7 5-1.8 6.9 1.3.8 2.3.8 3.8-.2 2.6-1.6 4.7-1.5 5.4.3.7 2 3.3 1.9 4.4-.1.8-1.4 1.5-1.1 5.1 2.5 3.2 3.2 4.4 5.3 5.1 9 .5 2.6.6 5.8.3 7-.3 1.1-.1 2.7.5 3.4 1.3 1.6 2.7 17.7 1.5 17.7-.5 0-2.2-1.4-3.8-3-3.4-3.5-5.1-3.8-6-.9-.7 2.1 4.6 14.4 9 20.9 1.3 1.9 2.7 5.7 3.1 8.5 1.2 8.8 3.4 12.1 4.9 7.5 1-3.2 2.6-1.2 2.3 2.8-.2 2.6.1 3.7 1 3.7 1.8 0 6.2-7.8 6.2-10.8 0-1.3.4-2.7.9-3.2 1.3-1.5 3.1-8.4 2.5-10-.3-.8-2.2-1.5-4.2-1.7-3.6-.3-3.6-.4-5.5-7.3-1.2-4.7-1.6-8.7-1.3-12.2.6-5-1-10.7-4.6-16.8-.6-1.1-1.5-6.7-1.9-12.4-.6-8.2-1.2-11-2.8-13.2-2.5-3.3-2.6-3.9-.7-3.9 3.1 0 4.9 5.2 5.6 16.2.5 9.8.8 11 3.2 13.5 1.4 1.6 2.9 3.9 3.3 5.3.4 1.4 2.2 5.4 4 9 1.8 3.6 3.5 8.1 3.9 10.1 1.1 6.2 7.1 11.9 12.6 11.9 3.1 0 2.4-2.7-1.5-6.3-2.9-2.7-3.8-4.4-5.1-10.7-2.9-14.4-3.2-15.2-5.5-13.9-1.6.8-2.4.8-3.2 0-1.4-1.4-1.8-17.9-.6-20.3.9-1.6 1.2-1.6 5.5.2 5.5 2.4 8.7 2.5 10.4.5.7-.8 2.5-1.5 4-1.5 4.2 0 6-1 6-3.2 0-3.7 12-12.2 14.1-10.1 1.2 1.2-.1 2.6-5.3 5.8-5.5 3.5-6 4.5-1.9 4.5 1.6 0 3.7.7 4.6 1.6 1.4 1.5 1.3 1.9-1.5 5-1.6 1.9-3 4.2-3 5.2 0 2.5 1.1 6.2 1.9 6.2 1.1 0 4.8-7.4 6.5-12.9.9-3 2.2-6.1 3-7 .7-.9 1.6-3.3 1.9-5.4.9-5.5 9.2-22.4 11.4-23.1 2.4-.8 8.3-9.6 8.3-12.4 0-3.4 3.5-9.5 7.4-13l3.5-3 6.3 1.9c3.5 1 7.1 1.9 8.1 1.9s5.1-1.8 9.1-4 8-4 8.9-4c2.9 0 1.9 1.9-1.7 3.4-2.3 1-3.5 2.2-3.8 3.8-.3 2-1 2.4-5.8 3-3 .3-7.3 1.5-9.5 2.6s-5.6 2.7-7.5 3.6c-3.9 1.8-8.1 7.5-13.2 17.6-4.4 8.6-7.3 12.4-12 15.5-2.9 1.9-4.8 4.5-7.4 9.8-1.9 3.9-3.4 7.9-3.4 8.9 0 3.3 4.1 2 8.5-2.8 2.4-2.7 4.7-4.4 5.4-4 1.7 1.1 1.4 2-2.8 8.8-2.2 3.5-5 9-6.2 12.3-1.2 3.3-5.5 11-9.5 17-7.9 11.9-9.2 14.5-7.6 14.5.6 0 3.4-3.4 6.3-7.5 4.4-6.4 5.5-7.4 7.4-6.9 2 .5 2.9-.3 6.1-5.3 2.1-3.2 4-6 4.1-6.2.2-.2.5-.2.8.1.9.9-6.4 12.7-8.4 13.8-1 .5-2.6 2.8-3.5 5-1 2.5-2.5 4.4-4.1 5-2.1.8-2.4 1.4-1.9 3.8.4 2.1.2 3.1-1 3.5-1.6.6-2.3 4.7-.8 4.7 1.5 0 6.9-5.9 8.2-8.9 1.8-4.4 3-3.8 3 1.4 0 3.1-.4 4.5-1.3 4.5-.8 0-2.4 1.1-3.6 2.4l-2.3 2.5 2.8 2.5c3.3 2.9 4.5 3.1 6.2 1.4 1.4-1.4 2.7-.4 1.9 1.5-.3.8-2.3 1.7-4.4 2-3.3.6-4 .3-5.6-1.8-1-1.4-2.5-2.5-3.4-2.5-1.5 0-1.5 4.7.2 15.7.6 3.7.4 4.3-1.9 5.8-1.8 1.2-2.6 2.6-2.6 4.6 0 2.2-.6 3.2-2.4 3.9-2.8 1-6.6 5.6-6.6 8 0 .9 1.1 2.7 2.5 4 1.9 1.8 2.2 2.7 1.4 4.2-.8 1.5-1.4 1.6-3 .8-2-1.1-3.9-.6-3.9 1.1 0 1 2.8 5.3 6.1 9.4.8 1.1 1.6 3.3 1.7 4.9.3 4.4 1 4.3 2.2-.5 1.8-7.2 1.9-7.4 3.2-6.1.7.7 1.2 3 1.1 5.2-.2 3 .2 4 1.4 4 1.1 0 1.4.6 1 2.1-.3 1.2-.2 3.2.3 4.4 1.1 2.8-.8 8.5-2.7 8.5-1.6 0-1.6.5-.1 4.6 1 3 .9 3.6-1.6 6.9-2.2 2.9-2.5 3.9-1.6 5 .7.8 1.6 1.5 2 1.5 1.4 0 11.4-10.9 12.9-14.1 1.2-2.5 1.3-3.7.2-7.9-1.7-6.6-.8-9.6 4-14.1 2.1-2 3.9-4.5 3.9-5.7 0-2.5 1.9-7.7 2.5-7 .3.3-.1 4-.8 8.3-2 11.8-.5 19.4 3.9 19.5.6 0 3.8-2.5 7.2-5.6 4.9-4.4 6.6-6.7 8.3-11.5 2.1-5.6 3.5-7.7 4.5-6.7.2.3-.3 2.4-1.1 4.8-1.7 4.8-1.9 8-.6 8 .5 0 2.7-1.9 5-4.1 2.3-2.3 4.5-3.9 4.9-3.5.4.4-3.5 4.7-8.5 9.5-5.1 4.8-9.3 9.1-9.3 9.7 0 .6 1.2.9 2.8.7 4.1-.7 8.6 4.4 7.7 8.6-.5 2.2-1.2 3.1-2.6 3.1-2.1 0-2.5-2-.7-3.8 1.9-1.9.1-2.7-5.8-2.7-6.5 0-8.6 1.7-11.2 9.5-1.7 4.9-2.2 5.6-5.5 6.3-3.9.9-5 2.7-1.8 2.7 3 0 3.4 1.7 1 4.1-1.3 1.3-2.8 1.9-4.1 1.6-1.1-.3-2.9-.1-3.9.6-2.8 1.7-3.6-.1-1.6-3.5 1-1.7 1.5-3.3 1.3-3.5-.9-.9-13.6 10-13.6 11.7 0 1.6 1.5 1.2 3.5-1 2.6-2.8 3.5-1.6 3.1 4.1-.4 4.9-.3 5 2 4.5 1.7-.5 2.6-.2 3 .9.4.8 1.7 1.5 3 1.5 2.2 0 4.2-.7 14.2-5.1 2.3-1.1 4.5-1.9 4.7-1.9 1.2 0 .3 2.8-1 3.4-.8.3-1.5 1.4-1.5 2.5 0 4-8.2 7-14.6 5.2-4.9-1.3-6.1-.6-12.3 7.7-3.4 4.7-6.3 7.4-8.8 8.5-5.3 2.3-19.2 4.9-22.1 4.2-3.1-.8-5.2 1-5.2 4.4 0 4.3 1.3 5.3 6.6 5.1 7.8-.3 10.4-.1 10.4.9 0 .4-1.5 1.2-3.2 1.7-2.3.7-3.3 1.6-3.3 2.9 0 1.8.7 2 9.5 2 5.2 0 10.3.4 11.2.9 1.3.6 3.4-.1 7.3-2.3 4.6-2.6 6.5-3.1 12.2-3.1 3.8 0 9.7-.7 13.3-1.6 6.4-1.5 15-1.2 15 .6 0 .5-2.6 1.2-5.7 1.6-3.2.3-7 1.3-8.5 2-1.5.8-3.7 1.4-4.8 1.4-1.3 0-2.4.8-2.7 2-.3 1.1-1.1 2-1.8 2-.6 0-2 .9-2.9 1.9-1 1.1-3.8 2.9-6.2 4.1-4.7 2.1-4.9 2.4-5.8 7.7-.5 2.8-.3 3.3 1.4 3.3 3.5 0 2.1 2-1.5 2.2-1.9.1-4.2.2-5.2.2-2.7.2-2.6-2.2.2-2.6 1.4-.2 2.4-.8 2.3-1.3-.4-1.3-13.7-1.5-16.4-.2-2.6 1.1-12.5-1.5-14.4-3.8-.7-.8-2.1-1.5-3.1-1.5s-2-.4-2.3-.8c-.6-1 4.7-5.2 6.4-5.2.5 0 1-.5 1-1 0-1.8-6.3-1.1-14.3 1.6-7 2.3-8 3-9.7 6.4-1.1 2.1-2.8 4.1-3.8 4.4-1 .3-2.6 1.9-3.5 3.6-1 1.6-2.8 3.2-4 3.4-1.2.2-5.6 1-9.7 1.7s-9.9 2.1-12.9 3.1c-8.5 2.8-15.9 2-14.5-1.6.3-.7-1.7-1.6-4.9-2.4-4.4-1-6.1-1-10.4.3-2.8.8-6.1 2.3-7.4 3.4-2.9 2.3-2 5.2 1.7 4.9 1.8-.2 3.2.5 4.6 2.4 1.6 2.2 2.4 2.6 4.9 2.1 4.1-.8 3.8 1.7-.4 3.7-2 1-3.2 2.2-3.2 3.5 0 2.2-.4 2.2-9.7.8-3.6-.6-7-1.9-9.3-3.7-3.1-2.4-3.5-3.2-3-5.6.8-3.5-1.3-5.1-10.9-8.6-6.7-2.4-8.6-2-8.6 1.8 0 1-.6 1.8-1.3 1.8-.8 0-2.4-3.9-4-9.8-4.9-17-4.8-16.6-3.2-17.8 1.2-.9 1.1-1.3-.5-3-1-1-5.1-11.4-9-22.9-4-11.6-9.7-28.1-12.7-36.8-3-8.8-5.2-16.1-4.9-16.4.3-.3 9.4 3.1 20.3 7.5 18 7.3 42.1 15.2 46.5 15.2.9 0 4.9-1.2 8.8-2.6 6.8-2.5 7.1-2.8 6.5-5.4-.6-2.6-.1-2.9 10.7-8.3 6.2-3 13-6.9 15.1-8.5 3.5-2.8 16.6-9.7 23.1-12.2 2.5-.9 3.1-.7 5.6 2 1.6 1.7 3.2 4.1 3.6 5.3.3 1.2 3.1 8 6.1 15.1 5.2 12.2 5.5 13.1 4.8 18.5-.9 7.4-1 14.3 0 21.7l.7 6.1-3.7 3.1c-3.9 3.2-10.7 5.2-24 7.2-3.8.6-9.2 1.7-12 2.5-8.6 2.3-14.4 3.5-17.3 3.5-2.6 0-7.9 2.8-5.7 3 6.5.6 26.4-.5 36.8-2 7.3-1.1 15.1-2 17.5-2 2.3 0 5-.4 6-.9.9-.5 2.5-1.2 3.5-1.5 1.5-.5 1.6-1.5 1.1-10.5-.7-10-.7-10.1 1.7-11 1.8-.6 2.9-.5 4.2.7 1.5 1.3 2.3 1.4 5.1.4 1.8-.7 4.5-1.2 6-1.2 3.5 0 9.6-2.6 9.6-4.1 0-.9-2.2-1-8.5-.6-8.4.6-8.6.6-9.7-1.9-.8-1.8-1.8-2.4-3.7-2.2-2.3.3-2.6 0-2.4-2.6.1-1.6.9-3.6 1.7-4.5 1.4-1.3 1.7-1.3 3.4.2 1 .9 2.1 1.7 2.5 1.7.3 0 1.8-2.4 3.3-5.4 2.2-4.5 2.6-6 2-10-.5-3.2-1.2-4.6-2.3-4.6-1.3 0-1.5.9-1 4.7.4 3.3.1 5.4-.9 6.7-1.6 2.2-2.7 1.6-2.9-1.7-.2-1.8-.7-2.1-2.9-1.9-3.1.3-3.1.3-.6-6.8 1.5-4.4 2.3-5.5 4-5.3 1.2.2 2-.3 2-1.2 0-.9.9-1.5 2.4-1.5 4 0 5.7-4 5.9-13.3 0-4.5-.4-10-.9-12.1-1-4.4-3.6-6.7-5.7-5.1-.8.6-3.2 2.3-5.5 4-2.3 1.6-4.6 4.2-5.1 5.7-1.4 3.9-2.9 3.5-5.1-1.6-1-2.4-2.3-4.7-2.9-5-2.1-1.3-10.1-26.2-10.1-31.3 0-2.4-.2-2.5-1.4-1.3s-1.2 2.4-.2 7c.7 3 1.9 7.1 2.8 9.1 2.5 5.8 5 18.1 3.9 19.2-.7.7-1.2 0-1.7-1.9-1.7-7.6-5-15.1-7.7-17.7-2.8-2.7-2.9-2.9-1.1-4.8 1.4-1.6 1.6-2.5.7-5.4-.6-1.9-.9-5.2-.6-7.3.3-2.3 0-5-.8-6.5-1.1-2.1-1.2-5.4-.6-16.2l.9-13.6-2.5-2.3c-1.3-1.2-3.2-4.7-4.2-7.7s-2.8-6.8-4.1-8.6c-1.6-2.2-2.6-5.2-3.1-9.3-.3-3.3-1-6.3-1.4-6.6-.5-.3-.9-1.8-.9-3.5 0-3.4-1.6-3.8-3.1-.7-2.9 6.5-4.1 7.9-6 7.3-2-.7-2.4-.1-5 8.5-1.1 3.7-1.9 4.6-4 4.8-3.3.4-3.9-1.4-3.9-12.5 0-4.5-.4-8.4-1-8.8-1.4-.8-2.6 4.9-5.5 26.5-1.5 10.7-3.6 22.5-4.6 26.2-2.2 7.5-3.2 8.5-14.4 14-15.5 7.6-15.5 7.7-15.5 10.5 0 3.9-2.7 6.3-7 6.3-4.1 0-6.5 1.9-7.5 6.2-1.3 5.1-2.6 5.3-13.7 1.8-10.8-3.3-26.3-5.3-24.2-3.1.6.6 4.6 2 9 3.1 4.3 1 11.1 3 15 4.4 3.9 1.4 7.9 2.6 8.8 2.6 2.8 0 9.7 7.6 11.7 13.1l2 5.1-3.7 5.4c-2 2.9-4.3 5.5-5.2 5.9-1.9.7-7.1-.2-14.7-2.5-3.3-1-8.8-2.1-12.2-2.5-8-.8-16-3.1-19.7-5.8-4.8-3.4-16.3-30.4-13.9-32.8.4-.4 2.6-.2 4.8.6 2.2.8 5.6 1.4 7.5 1.3 2.9 0 2.3-.3-3.1-1.7-3.6-.9-7.4-2.3-8.4-3.1-2.4-2-5.3-8.4-30.3-67.5-3-7.2-14.2-33.5-25-58.5-10.7-25-21.5-50.2-24-56-8.9-21.1-29.2-68.7-32.6-76.5-4.4-9.8-4.5-12.7-.8-16.2 3.8-3.6 26.9-20.8 37.7-28.1 33.6-22.7 83-47.5 122-61.2 12.2-4.3 49.6-15.8 60.4-18.4 21.7-5.5 48.4-10 77.6-13.2 28.8-3.1 47.2-3.4 84-1.4zM491 168.6c0 7.9-1.1 9.4-6.6 9.4-5 0-8.4-1.4-8.4-3.3 0-2.3 11.1-11.6 13.8-11.7.8 0 1.2 1.8 1.2 5.6zm92.9-3c.3 1.6.1 1.7-1.3.5-1.9-1.6-2.1-3.4-.3-2.9.6.3 1.4 1.3 1.6 2.4zM219 172c0 .5-.5 1-1.1 1-.5 0-.7-.5-.4-1 .3-.6.8-1 1.1-1 .2 0 .4.4.4 1zm-5 2.8c0 1 1.7 6.8 3.9 12.8 4.4 12.7 5.6 17.7 3.9 17.2-2.5-.9-11.6-27.2-10.5-30.2.9-2.2 2.7-2 2.7.2zm-7.6 5.4c1.3 1.8 3.9 7.6 5.7 12.8 1.7 5.2 5.8 15.1 8.9 22 3.2 6.9 6.2 14.2 6.8 16.2.9 3.2.7 3.9-1.4 5.9-3.6 3.4-3.1 5.1 1.4 4.7 3.1-.3 3.7 0 4 1.8.2 1.5-.7 2.9-3 4.4-1.8 1.3-4.3 3.4-5.5 4.8-1.8 2.1-2.4 2.3-3.7 1.3-.8-.7-3.5-1.1-6.3-.9l-4.8.3-.3-3.7c-.3-3.5-.5-3.7-3-3.2-2.2.4-3.1-.1-4.9-2.8-2.7-4-11.7-26.6-13.7-34.1-.8-3-2.6-7.8-4.1-10.7-1.7-3.3-2.4-6.1-2.1-7.5.9-3.6 11-11.6 16.4-13.1 6.7-1.8 6.8-1.8 9.6 1.8zm372.8 6.5c4.5 4.3 3.7 7.7-4.7 19.1-2.2 3-3.9 4.3-6.5 4.8-1.9.3-4.8 1.5-6.3 2.6-4.5 3.1-5.7 1.9-5.7-5.7 0-6 .9-8 2.5-5.5 1.1 1.7 8.7 1.1 13.1-1.1 5.1-2.4 5.8-4.1 4.5-10-1.8-7.8-1.4-8.5 3.1-4.2zm-93.3 4.4c2.1 2.9 2.3 5.9.3 5.9-1.6 0-6.4-7-5.8-8.5.7-2 2.9-1 5.5 2.6zM586.5 205c.8 1.2-3.6 7.3-4.6 6.3-.4-.5-1.1-2-1.4-3.5-.6-2.2-.3-2.7 1.7-3.1 1.2-.2 2.6-.5 3-.6.4 0 1 .3 1.3.9zm-418.4 6.2c1 2.6 2.6 4.8 4.3 5.8 2.8 1.5 6.1 7.4 16.7 29 2.8 5.8 5.7 12.1 6.4 14.1.7 2 3.4 7.5 5.9 12.4 2.5 4.8 4.6 9.2 4.6 9.6 0 1.8-3.2.8-3.7-1.1-.3-1.1-.9-2-1.4-2-1.2 0-1.1 1.7.1 2.5.6.3 1 1.3 1 2.2 0 .9 2.5 5.4 5.5 9.9 3 4.6 5.5 9.2 5.5 10.3 0 1.2 1.6 4.1 3.5 6.7 1.9 2.5 3.5 5.5 3.5 6.7 0 1.2 1.1 4 2.5 6.2 3.8 6.3 7.5 14.4 9.7 21.5 4.2 13.5 15.2 42.9 19.5 52 3.2 7 4.4 10.8 4.5 14.3 0 5.5 6.5 22.8 12.9 34.5 2.3 4 3.9 7.8 3.7 8.4-.7 1.9-6.6-7.7-11.9-19.5-2.8-6.2-6.4-12.9-8-14.9-2.9-3.6-7.3-12.4-23.7-47.3-11.1-23.5-17.9-39.4-24.7-57.5-3.1-8.5-9.2-23.4-13.5-33-4.3-9.6-8.8-20.6-10-24.3-1.5-4.6-3.2-7.8-5.2-9.5-3.4-3-9.9-15.4-13.3-25.2-1.3-3.6-2.6-7.2-2.9-8.1-.8-1.8 3.7-7.9 5.8-7.9.6 0 1.9 1.9 2.7 4.2zm-8.2 14.3c1.8 4.1 4.8 10 6.7 13 1.8 3.1 3.2 6.3 3.2 7.3-.1.9 4.4 10.9 10 22.2 5.6 11.3 13.4 28.6 17.3 38.5 3.9 9.9 10.6 26.3 14.9 36.5 4.2 10.2 12.5 30.2 18.3 44.5 5.8 14.3 12.7 30.7 15.2 36.5 2.6 5.8 8.5 19.9 13.2 31.5 19 46.6 21.4 52.6 28.3 70.7 1.6 4.2 4.6 11.1 6.5 15.3 1.9 4.3 3.5 8.7 3.5 10 0 2.9.9 3.6 3.2 2.4 1.9-1 1.9-1.1-.1-4.2-3-5-10.6-23.2-13.9-33.7-1.6-5.2-5.7-15.1-9-22-9.9-20.6-19.7-49.2-15.3-44.4 1.3 1.4 8.4 17.6 13 29.7 2.2 6 6.2 14.8 8.9 19.7 2.7 4.8 5.7 11.2 6.7 14.1 1 3 3.5 9.6 5.7 14.7 2.1 5.1 3.8 9.4 3.8 9.6 0 .2 1.5 2.9 3.4 6 3.6 6 7.1 16 8.1 23.6 2.6 17.7 4.7 24.9 13 43.5 7.4 16.7 16.3 42 15.2 43.2-.5.4-1.8-.3-2.9-1.7l-2.1-2.5.8 2.5c.4 1.4 1.6 4.2 2.7 6.3 1 2.1 1.8 4.3 1.6 4.9-.6 1.7-4.6-5.7-9-16.7-2.2-5.5-6.4-14.7-9.3-20.5-5.6-11.1-8.2-19-9.5-28-.5-3-2-8.7-3.3-12.5-1.4-3.9-4-11.7-5.8-17.5-3.2-10.6-4.3-12.9-5.5-11.7-1.4 1.4 14.6 53.7 21.1 69.2 2.1 4.9 5.5 13.9 7.5 20 2.1 6 6.1 17.1 9 24.5 2.9 7.4 6.6 17.3 8.2 22 1.7 4.7 5 13.7 7.5 20 2.5 6.3 6.7 17.8 9.4 25.5l5 14-2.6 5.6c-1.4 3.1-2.5 6.6-2.5 7.7 0 2.8 11.3 12.4 16.1 13.5 1.5.4 3 1.5 3.4 2.4 4.5 11.7 29 77.6 29.6 79.8.5 1.6 2.9 8.2 5.4 14.5 2.4 6.3 10.8 28.6 18.6 49.5 7.7 20.9 15.8 42.5 17.9 48 2.2 5.5 6.8 17.9 10.4 27.5 6.1 16.7 14 37.5 35.3 93.5 5.3 13.7 10.3 27.2 11.3 30 3.4 9.5 11.2 28 13.6 32.2 1.4 2.4 3.8 4.9 5.3 5.8 2.8 1.4 9.1 10 9.1 12.3 0 .7-.7 1.2-1.6 1.2-4 0-35.1-4.2-45.4-6.1-6.3-1.2-13.3-2.5-15.5-2.9-27.3-5.1-69.1-17.4-97.9-29-39.6-15.8-88.9-42.6-122.1-66.2C182.3 1020 120.8 950.9 80 875.7c-19.5-36-30.9-62.9-43.5-102.4-13.2-41.7-17.3-61.2-22-103.3-3.9-35.7-4.6-46.1-4.6-70 .1-51.6 5.6-95.2 18.2-143.5 11.3-43.6 19.9-67.1 38-104 22.1-45.2 51.2-90.6 78.3-122.3 3.9-4.6 7.8-9.2 8.6-10.3.8-1 2-1.8 2.6-1.9.6 0 2.5 3.4 4.3 7.5zm72-1.5c.5 1.6 1.9 3.3 3 4 1.2.6 2.1 2 2.1 3.2 0 1.1 1.4 4.5 3.1 7.4 2.6 4.5 6.8 14.3 15.7 35.6.8 2.1 1.9 3.8 2.4 3.8.9 0 .1-4.4-1.5-7.4-.5-1.1-2.9-7.2-5.2-13.5-2.4-6.4-4.6-12.5-5.1-13.5-.5-1.4-.4-1.7.5-1.2 1.6 1 4.3 7.1 9.6 22.1 2.3 6.6 6.1 15.7 8.4 20.3 2.3 4.5 5.2 11.1 6.5 14.5 1.3 3.4 3.3 8.4 4.4 11.2 1.1 2.7 3.2 8.3 4.7 12.3 1.5 4.1 4.2 9.5 6 12.2 7.1 10.6 9.9 16.8 17 37.8 9.8 29.3 15.2 43.2 22.8 59.3 3.9 8.1 12.7 31.1 12.7 33 0 .7 2.4 6 5.4 11.8 2.9 5.8 6.5 13.7 7.9 17.6 1.4 3.8 3.3 8.8 4.3 11 .9 2.2 2.3 6.2 3 9 1.4 5.7 9.3 26.4 15.3 40.4 2.3 5.2 4.1 10.1 4.1 10.8 0 .7.9 3 2 5 1.1 2.1 2 4.4 2 5.1 0 .7 1.5 4.3 3.4 8 5.1 10.3 9.3 21.7 12.1 32.7 1.4 5.5 3.8 12.7 5.5 16.1 1.7 3.4 2.9 7.5 2.9 9.5-.1 1.9 3.2 12.9 7.5 25 4.2 11.9 7.6 22.1 7.6 22.7 0 1.9 1.8 2.3 3.4.7.8-.8 1.7-1.1 2.1-.6.3.5-.4 1.2-1.5 1.6-2.5.8-2.5 1.7-.1 8 3.6 9.8 6 14.5 7.3 14.5 1.7 0 6.8 12.9 6.8 16.9 0 1.9.7 3.4 1.8 4 1.6.9 6.3 11.2 15.5 34.1 1.9 4.7 5.8 13.9 8.7 20.5 2.8 6.6 5.9 13.8 6.8 16 1 2.2 3.9 8.5 6.5 13.9 3.6 7.5 5.1 9.6 5.9 8.8 1.8-1.8 3.8-1.4 3.8.5 0 1 1.2 4.9 2.6 8.8 1.4 3.8 3.3 9.2 4.4 12 3.1 8.6 10.6 25.5 17 38.5 3.5 6.9 9.3 18.9 13.1 26.7 3.7 7.9 7.3 14.3 7.9 14.3 1.7 0 .6-2.8-6.5-17.5-7.4-15.1-14.5-31.5-14.5-33.3 0-2.7 1.7-.9 4.2 4.5 1.5 3.2 5.9 12.4 9.7 20.6 3.9 8.1 7.1 15.3 7.1 16.1 0 .7.6 1.9 1.4 2.5.7.6 2.1 3.7 3 6.9 1 3.1 2.1 6.5 2.7 7.4.5 1 .9 2.8.9 4.2 0 1.3.9 3.4 1.9 4.8 2.1 2.6 6.1 13.1 6.1 15.9 0 .9-.6 2.2-1.4 2.8-2.2 1.9-1.4 5.9 5.8 27.7 6.9 21.1 12.7 35.1 13.3 32.2.2-.9-.3-3.3-1.1-5.3-1.7-4-2.1-7.5-.8-7.5 1.3.1 6.9 13.3 9.2 22 2.1 8 5 15.5 8.7 22.5 1.9 3.6 11.8 27.1 14.3 34 2.3 6.2 8.6 20.4 9.4 21.2.3.4.6 1.6.6 2.8 0 1.3 1.6 4.9 3.5 8.1 4 6.5 4.1 7.2 2 8.1-1.3.4-1.4 1.5-.9 5 .6 4.3.6 4.5-1.4 3.4-3.9-2.1-3.8-1.8 1.9 10.4 5 10.7 5 10.5 3.5 10.5-1.2 0-11.6-19.4-11.6-21.8 0-.6-1.7-3-3.7-5.1-2.3-2.4-4.8-6.5-6.3-10.6-1.3-3.6-3-7-3.6-7.3-4.6-2.6-18.8-42.6-22.8-64.2-1.5-7.9-4.5-19.3-7.4-27.5-10.1-28.6-12.1-34.2-16.2-44-2.3-5.5-5.6-14.1-7.5-19-1.8-5-4.9-13.5-6.9-19s-4.8-11.6-6.1-13.5c-1.3-1.9-5.1-10-8.5-17.9-3.4-7.9-7.9-17.8-10-22.1-2.1-4.2-5.4-11.6-7.4-16.3-1.9-4.8-5-10.9-7-13.5-1.9-2.7-4.6-8.2-6-12.3-2.5-7.6-8.8-25.2-12.6-34.9-3.4-8.8-12.9-28-13.9-28-.5 0-2.1-3-3.6-6.7-2.6-6.6-8.6-20-15-33.8-6.5-14-14.5-32.8-16.4-38.6-.7-2-2.3-5-3.7-6.5-3.2-3.8-13.4-22.8-17.2-32.4-4.4-11.1-15.9-47.8-16.7-53.3-.6-4.7-5.5-17.8-9.4-25.6-1.1-2.1-4.5-10.3-7.5-18.2-6.9-18.4-9.3-23.6-11.2-24.7-.9-.5-2.2-4-3-8.3-1-4.8-5.2-15.4-11.6-29.9-11.5-25.8-19.6-46.6-23.9-61.9-3.9-13.8-7.2-23.3-12.4-35.6-5.5-13.3-6.9-17.2-10.1-29-1.4-5.5-4.4-13.9-6.5-18.8-2.2-4.8-5.4-13.2-7.3-18.6-3.3-9.4-18.1-40.1-23.3-48.4-8.1-12.8-13.6-23.7-16.4-32.4-1.7-5.4-6-15.6-9.5-22.7s-6.4-13.7-6.4-14.7c0-2.7 2.7-1.3 3.9 2.1zm330.8.7c-1.2 1.4-1.6 4-1.6 11.1v9.2h6.4l-.3 8.5c-.2 4.9-.7 8.3-1.3 8-.5-.4-.9-1.9-.9-3.4s-.7-3.6-1.6-4.7c-1.4-1.7-1.5-1.3-.9 5.2.6 6.9.1 10.4-1.5 10.4-.4 0-1-4.6-1.2-10.3-.3-6.7-1-11.2-2.1-13.1-.8-1.6-1.3-3.6-1-4.5.3-1.2.1-1.2-1.1.3-.8 1-1.3 2.2-1 2.7.2.4 1.1 6.1 1.9 12.6.8 6.5 1.9 11.9 2.5 12.1.5.2 1 1 1 1.7 0 2.2 2.7 2.5 4.6.4 1-1.1 4.6-4 8.1-6.5 5.5-3.9 6.5-4.3 8.3-3.2 1.1.7 2 1.6 2 2.1 0 1.6-7.3 15.3-9.3 17.4-1.1 1.3-2.9 2.3-3.8 2.3-1 0-2.3.9-2.9 1.9-.5 1.1-2.8 3-4.9 4.2-2.1 1.2-4.4 3.1-5.1 4.3-.6 1.2-3.4 3.2-6.3 4.6-4.8 2.2-6.2 2.4-10.7 1.5-.8-.2-2.1-.4-2.7-.4-.7-.1-1.9-1.3-2.7-2.9-.8-1.5-3.7-5.4-6.5-8.7-2.9-3.3-5.6-7.6-6.1-9.5-1.8-6.7-6-16.4-8-18.5-1.6-1.7-6-11.5-6-13.3 0-.1.9.2 2 .8 3.1 1.7 9.6.2 22.8-5.2 13-5.3 12-5.2 18.4-2 .8.4 4.8-8.4 4.8-10.6 0-2.4 6.2-8.4 7.4-7.2.6.6.4 1.6-.7 2.7zm22 30.7c-.7 2.1-2.8 1.6-3.7-.9-1.4-3.8-.1-5.3 2.1-2.4 1 1.3 1.7 2.8 1.6 3.3zm-346.9 9.9c1.1 1.2 5.7 11.3 21.2 45.7 4.8 10.7 10.9 24 13.5 29.5 5.4 11.4 13.5 30.9 13.5 32.4 0 2-7 5.1-15 6.7-13 2.4-12.6 2.6-17-9.6-2.1-5.8-9.1-22.7-15.7-37.5-6.6-14.9-12.6-28.6-13.3-30.5-.8-1.9-4-9.1-7.3-16-4.1-8.8-5.6-12.9-4.9-14 1-1.7 17.3-7.7 21.3-7.9 1.5-.1 3.1.5 3.7 1.2zm384.4 9.2c-.2 3.1-1.2 7.1-2.2 8.9-1 1.7-2.6 5.2-3.5 7.8-1 2.7-2.2 4.8-2.6 4.8-1.1 0-1.1-.2.2-5.8.6-2.6 1.9-5.3 2.7-6 .9-.6 1.2-1.3.6-1.3-.5-.1-1.6-.2-2.4-.3-.8 0-1.5-1-1.5-2.1-.1-1.1-.7-3.2-1.5-4.8-1.4-2.8-.6-5.2 1-2.7.7 1.2 1.1 1.2 2.7-.1 1-.8 2.4-2.2 3.1-3.2 2.4-3.2 3.7-1.4 3.4 4.8zm-100.2 14c7.5 13.6 8.5 14.7 16.4 17 2.2.7 4.2 1.8 4.4 2.5.6 1.7-7.4.5-10.7-1.7-1.4-.9-3.4-1.3-5.1-1-3.4.7-6.2-2-8-7.8-2.6-8.3-2.8-8.7-4.9-7.5-3.1 1.6-3.4 1.2-1.1-1.7 1.4-1.8 1.9-3.5 1.5-5.1-.3-1.2-.3-2.8.1-3.3.9-1.6 3.6 1.5 7.4 8.6zm130.8-4.1c.6 1.4 2.3 2.7 4.1 3.1 3.7.8 4.6 1.9 6 7.2 1.1 4.2 3.4 6.1 3 2.5-.6-6.2 1.2-5 4 2.7 1.6 4.4 2.6 5.9 3.6 5.4.8-.3 1.5-1.4 1.5-2.4s.4-1.9.8-1.9c2.1 0 1.8 1.5-1.1 5.7-2.3 3.6-3.1 5.9-3.3 10.2-.1 3.1-.5 6.6-.9 7.7-.8 2.5 1.3 4.3 2.6 2.3.6-1 .9-.8.9.8 0 2.2-.7 3.1-4.4 5.7-1.8 1.2-1.8 1.5-.2 6.8.9 3 2.3 6.1 3.1 6.8 1.6 1.3 2.1 4 .7 4-.4 0-2-1.1-3.5-2.5-1.8-1.8-2.7-3.6-2.7-5.8 0-1.8-.5-4.8-1-6.7-1.2-3.9-6.6-10.4-8-9.5-1.7 1-2.2 7.1-.9 11.6.6 2.4 1.2 6.5 1.3 9.1.1 3.5.6 5.1 2.1 6.2 1.9 1.4 1.9 1.5.2 3.3-1.9 2.2-1.4 3.3 1.6 3.3 1.5 0 1.8.5 1.3 2.4-.3 1.4-.2 2.7.3 3 .5.3.7 2 .6 3.8-.4 4.7-.4 4.8-1.3 4.8-1.2 0-6.2-7.9-6.2-9.6 0-2.1-2.9-7.4-4-7.4-.6 0-1-1.4-1-3 0-1.7-.4-3-1-3-1.5 0-1.2 5.1.4 6.4 2.1 1.7 3 5.6 1.3 5.6-1.9 0-4-2.6-3.4-4.3.3-.7-.1-2.4-.8-3.7-1.3-2.4-1-5.5.8-7.8 1.2-1.5.1-12.4-1.8-16.9-.8-1.8-1.5-6.5-1.6-10.5-.2-6.7 0-7.3 2.5-9.3 3-2.4 3.2-4.5 2.1-19.3-.8-9.3 0-11.7 2.3-6.8zm20.2 10.1c0 .8-.4 1.7-1 2-.6.4-1-.5-1-2s.4-2.4 1-2c.6.3 1 1.2 1 2zm-41.6-.6c.5.8-.6 4.9-5.4 19.6-3.9 12.2-5 19.4-5 33.6 0 11.5.3 14.1 1.5 14.5 3.3 1.3 1.1 8-2.3 7-1.4-.5-2.7 0-4 1.4-1.4 1.5-2.6 1.9-4.4 1.5-1.8-.5-2.7-.2-3.1.9-.4.9-1.2 1.4-1.9 1.1-3-1.1-4.1 1.3-4.9 11.6-1 10.9-1.3 12.9-2.6 12.9-.5 0-.7-4.1-.6-9 .1-5-.2-9-.7-9-1.6 0-4 3.2-4 5.4 0 1.2-.7 3.1-1.5 4.2-1.3 1.8-1.4 1.5-1.6-3.1-.3-11.7-2.8-14.3-5.9-6.2-1 2.7-2.4 5.5-3.1 6.3-.9 1.1-.9 1.8-.1 2.6 1.7 1.7 1.5 2.4-1 4.8-2.8 2.5-4.2 2.6-2.8.1 1.6-3 1.3-4.6-.5-3.1-.8.7-1.5 2.3-1.5 3.5 0 1.4-1.2 3.3-2.7 4.5-6 4.7-3.2-2.6 5.4-14.4 2.4-3.2 4.3-6.4 4.3-7.1 0-.7-1-1.9-2.2-2.8-2.1-1.4-2.2-1.7-.8-4 5.2-8.5 11.2-16.5 13.7-18.3 1.5-1.2 4.4-5.3 6.3-9.2 1.9-4 3.8-7.2 4.3-7.2.9 0 .8 8-.2 17.8-.4 4-.4 7.5-.1 7.7.3.2 2.7-.9 5.2-2.5 6.7-4.2 7.2-7.6 4.8-29.3-1.1-9.2-1.1-12.4-.2-15 .7-1.9 1.2-4.3 1.2-5.5 0-1.3.6-2.2 1.5-2.2.8 0 1.9-.9 2.5-2 1.7-3.2 4.1-2.6 3.4 1-.5 2.3-.3 3 1 3 .9 0 1.6-.6 1.6-1.3 0-.8.9-4.4 2.1-8 2-6.3 3.1-7.8 4.3-5.8zm-128.2.7c.3.3.4 1.3.1 2.2-.3 1.4-1.6 1.8-6 1.8l-5.7.1 4.5-2.3c4.5-2.4 6.2-2.8 7.1-1.8zm89.8 4.9c1.5 1.8-.2 4.5-2.9 4.5-.9 0-2.7.7-4 1.6-1.5 1.1-2.6 1.3-3.3.6-.6-.6.5-2.2 3.3-4.6 4.8-4.1 5.2-4.2 6.9-2.1zm90 3.1c0 .8-.5 1.2-1 .9-.6-.4-.8-1.1-.5-1.6.9-1.4 1.5-1.1 1.5.7zm-184.9 4.7c-.8.8-1.1.7-1.1-.4 0-2 1.3-3.4 1.8-1.9.3.7-.1 1.7-.7 2.3zm183.9-.5c0 1.3-1.2 2.2-2.2 1.6-1-.6-.1-2.4 1.3-2.4.5 0 .9.4.9.8zm-5 10.2c0 .5-.2 1-.4 1-.3 0-.8-.5-1.1-1-.3-.6-.1-1 .4-1 .6 0 1.1.4 1.1 1zm1.5 5c.3.5.1 1-.4 1-.6 0-1.1-.5-1.1-1 0-.6.2-1 .4-1 .3 0 .8.4 1.1 1zm24.5 5.5c0 3.2-1 5.6-2.1 4.9-1-.6-1.2-4.5-.3-6.8.8-2.2 2.4-1 2.4 1.9zm-121-.5c0 .5-.2 1-.4 1-.3 0-.8-.5-1.1-1-.3-.6-.1-1 .4-1 .6 0 1.1.4 1.1 1zm125.2 6.5c0 .5-.5 1.1-1.1 1.3-.6.2-1.1-.4-1.1-1.3s.5-1.5 1.1-1.3c.6.2 1.1.8 1.1 1.3zm4.8 7.1c0 .8-.4 1.2-1 .9-.5-.3-1-1-1-1.6 0-.5.5-.9 1-.9.6 0 1 .7 1 1.6zm-18.5 10.8c1.5 2.2 1.5 2.7.1 4.9-.9 1.3-1.4 2.5-1.2 2.8.2.2.7 2.8 1 5.7.3 3 .9 5.9 1.3 6.5.4.7.9 4.3 1 8.2.1 4.6.7 7.3 1.6 8 .7.5 2 2.1 2.7 3.4 1.2 2.3 1.3 2.3 2.6.7.7-1 1.7-1.5 2.3-1.1 1.8 1 1.2 5.4-.9 7.5-1.1 1.1-2 2.9-2 4 0 4.3-4 .7-8.5-7.7-2.3-4.4-3.2-5.2-5-4.7-1.8.4-2.6-.3-4.6-4-2.3-4.5-2.3-4.6-.4-6 1.9-1.4 1.9-1.6.3-4.4-2.3-3.8-2.3-4.6.1-3.9 1.7.4 1.9-.1 1.9-4.2 0-4.9 1.6-15.3 2.7-17 1.1-1.8 3.4-1.2 5 1.3zm6.9 1.7c-.3.5-1 .7-1.5.3-.5-.3-.7-1-.3-1.5.3-.5 1-.7 1.5-.3.5.3.7 1 .3 1.5zm-121.3 1.2c-1.3 1.3-2.6.3-1.6-1.2.3-.6 1.1-.8 1.7-.5.6.4.6 1-.1 1.7zM635 357c0 .5-.7 1-1.6 1-.8 0-1.2-.5-.9-1 .3-.6 1-1 1.6-1 .5 0 .9.4.9 1zm63.4 5.6c.3.9.6 2.4.6 3.4 0 .9.7 2.3 1.5 3 1.5 1.2 1.2 3-.5 3-.9 0-4-7.3-4-9.5 0-2 1.6-1.9 2.4.1zm-18.6 3.6c-.4 4.1-2.8 5-2.8 1 0-1.6.3-3.2.7-3.5 1.5-1.6 2.4-.5 2.1 2.5zm-214.6 2.5c0 2.1 0 4.9-.1 6.2-.2 2.1 0 2.3 1.3 1.2.9-.7 2.2-1.1 3-.8 1.5.6 4.6-2.2 4.6-4.1 0-2.2 2.8-1.2 6.4 2.2 3.4 3.2 4.6 5.6 2.7 5.6-.5 0-1.6-1.1-2.5-2.5-2.1-3.3-4.2-3.2-5.8.2-1.1 2.4-2 2.8-5.3 2.8-3.6 0-4 .3-4.5 3.1-.4 1.7-1 3.6-1.4 4.2-.7 1.2 3.1 4.2 5.5 4.2 2.1 0 6.9 3.7 6.9 5.4 0 1.4-5.4 4.8-7.2 4.5-3.8-.5-3.9.3-.4 4.5 4.2 5.1 4.5 6.9 1.4 6.4-1.5-.2-2.4-1-2.4-2.3-.1-1.1-.2-2.6-.3-3.3-.2-2-4.3-1.3-10.5 1.8-7.3 3.7-8 3.7-3.6 0 1.9-1.6 2.9-3 2.2-3-1.5 0-14.6 6.5-18.5 9.2-1.6 1.1-3.1 1.8-3.4 1.4-.9-.9 1.7-3.6 6-6.3 3.7-2.3 11.1-9.7 15.5-15.3 3.6-4.7 7.1-13 7.1-16.8-.1-8.5.4-12.2 1.7-12.2.9 0 1.5 1.3 1.6 3.7zM716 379.5c0 .8-.4 1.5-1 1.5-.5 0-1-.7-1-1.5s.5-1.5 1-1.5c.6 0 1 .7 1 1.5zm-43.2 5.1c-1 1-2.8-.6-2.8-2.4 0-1.5.1-1.5 1.7.1.9.9 1.4 1.9 1.1 2.3zM288.5 383c.7 1.2.7 1.2-11 3.5-14.3 2.9-14.5 2.9-14.5 1.3 0-3.2 23.7-7.6 25.5-4.8zm426.1 10.7c-1.1 1.1-1.9-.6-1.1-2.4.8-1.7.8-1.7 1.2 0 .3 1 .2 2.1-.1 2.4zm-5 9.1c2.6 2.2 3.2 3.7 3.8 8.4.3 3.2.3 5.8-.1 5.8-1.6 0-4.3-3.5-4.3-5.6 0-1.4-1-3-2.5-4-2.4-1.5-3.4-5.2-1.8-6.7 1-1.1 1.6-.8 4.9 2.1zM563 405.4c0 1.4-.5 2.8-1 3.1-1.3.8-2.4-2-1.6-4 .9-2.4 2.6-1.7 2.6.9zm9 2.1c0 .8-.4 1.5-1 1.5-.5 0-1-.7-1-1.5s.5-1.5 1-1.5c.6 0 1 .7 1 1.5zm175 6.8c0 1.6-20.7 13.7-23.4 13.7-2.6 0-9.6-5.2-9.6-7.3 0-.9.4-1.7.8-1.7 1.7 0 9.2 4.1 9.2 5 0 2 2.7.9 7.4-3 2.6-2.2 5.6-4 6.5-4 .9 0 3-.9 4.6-1.9 3.6-2.4 4.5-2.5 4.5-.8zm-455 1.6c0 1.6-9.2 7.3-10.2 6.3-1.5-1.5.2-3.9 4-5.5 4.4-1.8 6.2-2 6.2-.8zm5 2.5c0 .8-.7 1.7-1.6 2-3 1.1-3.7.6-1.9-1.4 2.1-2.3 3.5-2.6 3.5-.6zm271 4.7c.7 1.1.9 2.3.6 2.6-.8.9-3.6-1.7-3.6-3.3 0-2.1 1.8-1.7 3 .7zM424 428c2.3-1.2 6.9-.9 14.3 1.1 2.9.8 3.7 1.5 3.7 3.2 0 1.2.7 3.2 1.5 4.4 2.7 3.8 0 3.3-4.4-.8-4.5-4.2-7.7-5.9-11.6-5.9-3.4 0-3.6 1-1.7 6.6 1.3 3.5 2.4 5 3.9 5.2 3.9.6 6.5 6.9 3.8 9.2-2.1 1.7-1.9 2.3 2 6.5 3.6 4 3.9 7.2.9 10.5-1.2 1.2-1.4.8-1.4-2.8 0-4-.5-4.7-3.7-4.3-2.4.3-5.3-3.3-5.3-6.6 0-2.7-.7-3.7-4-5.8-2.2-1.4-4.7-4-5.6-5.7-.9-1.8-2.8-4.5-4.1-6l-2.5-2.7 2-2.6c1.1-1.4 2.4-4 2.7-5.6l.7-3.1 3.3 3.2c2.9 2.8 3.6 3 5.5 2zm-119.1 1.7c1 2.1 6.6 14.8 12.4 28.3 18.4 42.6 30.5 69.1 32.4 71.3 1.9 2.1 7.3 17.6 7.3 20.8 0 .9-2.1 3.1-4.7 4.9-2.7 1.9-6.5 5.1-8.5 7.1-3.3 3.4-3.6 4.1-3.1 7.6.3 2.1 1.2 4.5 1.9 5.3.7.8 2.2 4.1 3.4 7.2 1.9 5.3 4 7.6 4 4.6 0-1.4 3-4.8 4.2-4.8 1.4 0 5.6 10 6.2 14.8.6 4.9 3.9 10.2 6.4 10.2 1.9 0 7.2 4.8 7.2 6.6 0 1.8-10.8 5.7-15.4 5.6-4.6-.1-5.3-.6-3.6-2.7 1.5-1.9.5-3.4-1.2-1.7-1.9 1.9-3.6 1.4-4.3-1.1-.4-1.2-2.5-5.3-4.7-9-2.3-3.7-4.4-8.5-4.9-10.5-.4-2-1.2-5.5-1.8-7.7-.6-2.2-1.1-6.1-1.1-8.7 0-4-.4-5-2.9-6.8-3.2-2.2-5.5-7.4-13.8-31.3-2.4-7.1-6.8-17.9-9.7-24-6.1-12.9-7-15.4-8.6-22.2-.6-2.7-3-9.2-5.2-14.5-4-9.4-13.8-33.3-16.4-40-1.9-5.1-1.8-7 .6-7 3 0 14.2-3.2 16.5-4.7 3.3-2.2 5.3-1.5 7.4 2.4zM277 467.1c0 2.1-1.7.7-2.7-2.4l-1.2-3.2 1.9 2.4c1.1 1.3 2 2.7 2 3.2zm263 1c0 .5-.7.9-1.5.9-1.5 0-2-1.2-.9-2.3.8-.8 2.4.1 2.4 1.4zm57.5-.1c-.3.5-1 1-1.6 1-.5 0-.9-.5-.9-1 0-.6.7-1 1.6-1 .8 0 1.2.4.9 1zm11.5 3.1c0 .5-.4.9-1 .9-.5 0-1-.7-1-1.6 0-.8.5-1.2 1-.9.6.3 1 1 1 1.6zm-7.1 1.3c-.2.2-2.1.6-4.3 1-2.9.6-3.7.4-3.4-.6.3-.7 1.5-1.4 2.7-1.4 1.2-.1 2.5-.4 2.8-.8.4-.3 1.1-.2 1.7.4.5.5.8 1.1.5 1.4zm14.1 8.1c0 .8-.7 1.5-1.5 1.5-1.6 0-2-1.2-.8-2.3 1.1-1.2 2.3-.8 2.3.8zm-10 30c0 .8-.4 1.5-1 1.5-.5 0-1-.7-1-1.5s.5-1.5 1-1.5c.6 0 1 .7 1 1.5zm-7 1.4c0 .5-1.7 1.1-3.7 1.5-2.1.3-4.8.9-6 1.2-1.3.4-2.3.2-2.3-.4 0-1 5.9-2.9 9.8-3.1 1.2-.1 2.2.3 2.2.8zm12 5.1c0 .5-.7 1-1.5 1s-1.5-.5-1.5-1c0-.6.7-1 1.5-1s1.5.4 1.5 1zm-19 7c0 .5-.7 1-1.6 1-.8 0-1.2-.5-.9-1 .3-.6 1-1 1.6-1 .5 0 .9.4.9 1zm12.3 3.7c1.5.9-.4 2.1-2.6 1.6-4.1-.9-4.8-1.3-4.2-2.3.6-.9 4.7-.5 6.8.7zm12.5 18.8c.2.2-1.5 1.1-3.7 2.1-2.3 1-4.1 2.4-4.1 3.1 0 .7-1 1.3-2.2 1.2h-2.3l2.2-1.5c3-2.2 1.8-4.4-2.4-4.4-2 0-3.2-.4-2.8-1 .5-.8 14.2-.4 15.3.5zm14.2.5c0 .5-.4 1-1 1-.5 0-1-.5-1-1 0-.6.5-1 1-1 .6 0 1 .4 1 1zm-267 25c1.8 5.2 1.8 5.6.2 6.8-1.4 1.1-1.5 1.6-.4 3.3 1.5 2.4 1 3.4-1.2 2.6-.8-.3-1.6-1.6-1.8-2.9-.2-1.6-1.7-3-4.9-4.6-4.3-2.2-4.6-2.7-4.5-6 .1-4.2-2.4-5.3-3.4-1.4-.7 3.2-2.4 2.9-3.1-.7-.5-2.4 0-3.7 2.3-6.6 1.7-1.9 4.6-4.4 6.6-5.4l3.6-1.9 2.4 5.7c1.3 3.1 3.2 8.1 4.2 11.1zm440.4-14.1c.3.5-.3 2-1.4 3.2-1.5 1.9-1.9 2.1-2 .7 0-3.7 2.1-6.1 3.4-3.9zM533 560.5c0 .8-.7 1.5-1.5 1.5-1.6 0-2-1.2-.8-2.3 1.1-1.2 2.3-.8 2.3.8zm19 1.4c0 1.2-2.1 1.9-3.7 1.3-2.2-.8-1.4-2.2 1.2-2.2 1.4 0 2.5.4 2.5.9zm-50 9c0 .5-1 1.2-2.2 1.6-2.1.7-2 .8 1 1.2 1.8.2 3.9 0 4.6-.6.9-.7 1.7-.5 2.9.9 3.1 3.6 2.2 4.3-4.4 3.6-3.3-.4-6.7-1-7.5-1.3-.8-.3-1.4-.1-1.4.5 0 .5 1 1.3 2.3 1.7 2 .6 2 .8.3 1.2-1 .3-2.2 0-2.6-.7-.5-.8-.9-.7-1.3.4-.4.9-1.3 1.6-2.1 1.6-1 0-1.3-.6-1-1.5.4-.8 1.2-1.5 2-1.5 1.8 0 1.8-3.6 0-4.3-1.5-.6-4.4-.4-9.5.8-2.6.5-3.2.4-2.9-.6.3-.8 2.4-1.7 4.8-2.1 2.3-.4 4.5-.9 4.7-1.1.7-.8 12.3-.6 12.3.2zm96 4.1c0 1-4.1 3-6.1 3-1.9 0-.8-2.9 1.4-3.3 4-.8 4.7-.7 4.7.3zm-12 1.5c0 1-1 1.5-2.7 1.5-2.7-.1-2.7-.1-.9-1.5 2.5-1.9 3.6-1.9 3.6 0zm-79 8.5c0 .5-1.4 1-3.1 1-1.7 0-2.8-.4-2.4-1 .3-.6 1.7-1 3.1-1 1.3 0 2.4.4 2.4 1zm-53 3c0 .5-.4 1-1 1-.5 0-1-.5-1-1 0-.6.5-1 1-1 .6 0 1 .4 1 1zm-66.5 64.9c2.9 5.6 5.8 10.8 6.4 11.4.6.6 1.1 1.5 1.1 2.1 0 .5-4.3-3.4-9.6-8.7-5.3-5.4-10.1-9.7-10.8-9.6-2.5.3-3.6-.2-3.6-1.5 0-2.2 4.2-4.6 7.9-4.3 3.2.2 3.6.7 8.6 10.6zm417.9-8.4c-.4.8-1 1.3-1.5 1-.4-.3-.6-1.2-.3-2 .4-.8 1-1.3 1.5-1 .4.3.6 1.2.3 2zm-413.5 1.1c2.3 2.9 2.8 6.6.9 5.9-1.3-.5-5.8-6.6-5.8-7.8 0-1.7 3-.5 4.9 1.9zm-28.4 4.4c.8 1.6 3.9 4.7 6.8 6.9 6.8 5 17.7 16.5 17.7 18.5 0 2.8 3 6.7 13.5 17.6 9.7 10 28.2 33.6 27.2 34.6-.2.3-3.3 1.5-6.8 2.8-3.5 1.3-8.6 3.4-11.4 4.8-2.7 1.4-6.7 3.1-8.7 3.7-2 .7-4.2 1.9-5 2.8-2.4 2.9 8.8.9 17.4-3.1 4.2-2 8.1-3.6 8.6-3.6.6 0 1.3 1.1 1.6 2.4.3 1.3 2.1 4.5 3.9 7.2 2.9 4.4 5.7 9.7 5.7 10.9 0 1.2-2.9.3-5-1.5-2.3-2-6-2.6-7.3-1.3-.4.3.1 1.5 1 2.6 1.8 2 1.7 2-1.5 1.4-1.9-.4-4.2-.2-5.3.4-1.4.7-2.1.6-2.5-.4-.5-1.4-10.5-1.5-15.1-.1-3 .9-6.4-4.6-6.1-9.9.2-3-.3-4.2-2.5-6-1.7-1.5-3.9-5.7-6.5-12.7-2.2-5.8-5-12.8-6.4-15.5-1.4-2.8-4.2-9.7-6.3-15.5-2.1-5.8-5.5-14.8-7.7-20-4.4-10.6-8.8-23.6-8.8-26 0-.9.9-2.6 2-3.8 2.5-2.7 5.2-1.7 7.5 2.8zm56.5.6c0 .8-.4 1.2-1 .9-.5-.3-1-1-1-1.6 0-.5.5-.9 1-.9.6 0 1 .7 1 1.6zm25.3 13.1c2 4.3 5.5 13.6 7.8 20.7s4.8 14.1 5.5 15.5c1.6 3 1.9 9.1.4 9.1-.5 0-2.6-5.3-4.5-11.8-4.1-13.2-7-21.4-11.4-32.1-3.3-7.7-3.6-9.1-2.3-9.1.5 0 2.5 3.5 4.5 7.7zm96.2 1.9c4.9.8 9.1 1.7 9.2 1.8.2.1-1.9 6.1-4.6 13.2-2.7 7.1-7.3 19.9-10.2 28.4-5.3 15.2-5.4 15.7-5.4 27 0 11.2.2 11.9 4.9 25.5 5.3 15.4 7.4 19.8 15 32.5 4.9 8.2 9.3 16.7 12.4 24 .7 1.9 2.5 10.4 3.8 19 1.3 8.5 3.4 18.9 4.8 23 1.4 4.1 2.6 8.2 2.6 9 0 .8 1.4 4.4 3.1 8 3 6.3 3.1 6.8 2.3 15.5-.4 4.9-.6 20.3-.5 34.1.2 21.7.1 25.2-1.3 26.3-2 1.7-4.4.8-5.6-2.1-.5-1.3-3.6-8.6-6.8-16.3-3.3-7.7-7.6-19-9.7-25-2-6.1-7.5-18.9-12.2-28.5-16.1-33-18.6-38.7-25.4-56.9l-3.8-10.4 2.5-2.9c1.3-1.6 2.4-3.8 2.4-4.9 0-1 .9-2.7 2.1-3.7 3.8-3.2 5-8 5-20 0-10.3-.2-11.7-2.9-17.5-1.7-3.4-3.3-7.7-3.7-9.4-.3-1.8-1.1-3.5-1.6-3.8-.5-.4-.9-2.1-.9-4s-.4-3.7-1-4c-1.9-1.2-1-3.5 1.5-4.1 3.2-.8 6.5-4.9 6.5-8 0-1.3-1.9-4.5-4.4-7.3-3.9-4.4-5.1-7-9.6-20.8-2.9-8.7-6.1-16.9-7.2-18.3-1-1.4-3.5-4.6-5.4-7.1-1.9-2.6-5-5.7-6.9-7-1.9-1.3-3.5-3.2-3.5-4.3 0-1.7.5-1.8 4.3-1 5.3 1 26.1.7 31.3-.5 5.8-1.3 9-1.3 18.9.5zM349.9 673c1.2 3.8 2.4 7.6 2.7 8.5.3.8.2 1.5-.4 1.5-1 0-6.2-14.1-6.2-16.8 0-3.1 2 .3 3.9 6.8zm219.4-3.8c.2.7-.8 2.6-2.3 4.3-3 3.3-7.4 12.5-6 12.5.5 0 1.2-.5 1.5-1 .3-.6 1-1 1.6-1 1.9 0 .8 2.4-3.5 7.1-2.5 2.7-5.3 7.1-6.3 9.7-.9 2.6-3 7.1-4.5 10.1-2.8 5.5-3.7 12.4-1.8 13.6 1.5.9 1.2 2.5-.4 2.5-.7 0-1.9.7-2.6 1.5-.7.8-1.6 1.5-2.1 1.5-1.3 0-1.1-4.3.2-7.7.7-1.5 1.2-8.2 1.3-14.8.2-10.7.5-12.9 3.4-20.9 4.7-13.1 6.3-15.9 10.3-17.3 4.5-1.6 10.6-1.6 11.2-.1zm9.7 1.7c0 1.6-2.7 3.1-4.4 2.5-3-1.1-1.6-3.4 2.1-3.4 1.3 0 2.3.4 2.3.9zM349.3 688c1.4 4.1 2.9 8.3 3.3 9.4.5 1.3.3 1.7-.5 1.5-1.3-.5-7.1-15.9-7.1-18.8 0-3 1.9.4 4.3 7.9zm115.4 2.5c1.8 3.2 2.3 3.6 2.9 2.2.3-.9 1-1.7 1.5-1.7 1.5 0 1 3-.6 3.6-.8.4-1.5 1.5-1.5 2.5s-.5 1.9-1 1.9c-2.2 0-6-3.3-6-5.2 0-1.1-.5-2.8-1-3.9-.6-1.1-.8-2.4-.5-3 1.3-1.9 4-.4 6.2 3.6zm101.1 2.2c-1.7 3.9-6.9 13.3-7.3 13.3-.3 0-.5-.8-.5-1.8 0-2.3 5.8-12.2 7.1-12.2.6 0 .9.3.7.7zm-137 4.1c3.4 2.2 7.1 14 4.1 13-1.2-.4-7.1-13.8-6.1-13.8.4 0 1.3.4 2 .8zm42.7 5.5c.7 2.7-1 7.7-2.6 7.7-.8 0-.9-1.1-.5-3.1.3-1.7.6-4 .6-5 0-2.7 1.8-2.4 2.5.4zm92.5 7.6c0 2-1.7 3.7-2.7 2.8-.7-.8.7-4.7 1.8-4.7.5 0 .9.9.9 1.9zm42-.6c0 1.4-2 3.7-3.2 3.7-1.2 0-1-2.4.4-3.8 1.6-1.6 2.8-1.5 2.8.1zm-32 2.7c0 2.9-1.1 5-2.6 5-1.6 0-1.8-1.9-.4-5.5 1.1-2.8 3-2.5 3 .5zm-206.9 6.6c3.5 8.4 3.5 9.2.7 10.3l-2.3.9 2.5 1c3.9 1.5 11.5 17.4 8.3 17.1-.5 0-2.1-.8-3.6-1.7-4-2.4-7-10.7-7.2-19.7 0-4.2-.8-8.6-1.8-10.9-2-4.6-2.1-4.9-.5-4.4.6.2 2.4 3.5 3.9 7.4zm230.9-4.7c0 1.5-2.9 3.3-4.1 2.5-.9-.5-.7-1.1.6-2.1 2.2-1.5 3.5-1.7 3.5-.4zm-235.5 7.2c1.2 2.3 1.3 2.9.2 2.9-2 0-3.7-2.1-3.7-4.8 0-2.9 1.5-2.1 3.5 1.9zM563 720c0 .5-.4 1-1 1-.5 0-1-.5-1-1 0-.6.5-1 1-1 .6 0 1 .4 1 1zm-6.5 7c-.5 2.2-.3 3 .7 3s1.3 2 1.4 7.9c.1 7.3.3 8.1 3.4 12 1.8 2.2 4.2 4.1 5.2 4.1 2.2 0 2.3 1.3.3 3-1.3 1.1-1.2 1.6 1.1 3.8 2.2 2.3 2.8 2.4 4.6 1.3 2.6-1.6 3.3-.9 1.8 2-1.3 2.3-2.7 6.3-4 11.7-.8 3.4.4 5.2 2.3 3.3.6-.6 2.2-1.1 3.5-1.1 1.3 0 3.5-.9 4.9-2 1.4-1.1 3-2 3.5-2 1.3 0-3 7.2-4.9 8.3-1 .6-1.2 2-.8 5 .5 3.7-.1 11.8-1.9 27.4-.6 4.6.6 6.2 3 4.2 2.1-1.8 2.8-.4 2.5 5.1-.2 3.9.1 5 1.3 5 .8 0 1.6-.7 1.8-1.6.4-2.1 8.2-4.6 9.7-3.1.7.7 1.6.5 2.9-.6 2.3-2.1 3.2-2.1 4.7-.1 1 1.4 1.5 1.4 3.3.3 1.6-1 2.4-1.1 3.3-.2.8.8 0 1.7-2.9 3.3-3.3 1.9-4.6 3.6-7.1 9.2-1.7 3.7-3.1 7.3-3.1 7.8 0 2.5 1.7.5 4.5-5.2 1.7-3.4 3.6-6.4 4.4-6.6 1.6-.5 1.5 0-1.9 11.8-1.7 5.8-2 8.1-1.2 10.3.8 2.2.7 2.9-.8 4-1 .7-3.7 6-6 11.7-3.3 8.4-4.1 11.8-4.1 16.7 0 3.5.3 6.8.6 7.4.4.5 2.6.9 4.8.7 4.1-.3 4.2-.2 5.1 3.5.9 3.4.6 4.6-2.9 11.5-2.1 4.2-4.5 8.2-5.4 8.9-1.4 1-1.4 1.6-.3 4.7 1.1 3 1.1 4-.3 6.5-1.8 3.7-2 9.1-.2 11.5 1.2 1.6 1.4 1.6 2.6.2 2-2.4 4.1-2 4.1.9 0 3.3 2.8 3.3 3.6 0 .7-2.9 2.4-3.3 2.4-.6 0 1.1-2 4.1-4.4 6.7-3.6 3.8-5 4.7-7.7 4.6-1.8 0-4.1.4-5.1.9-2.8 1.5-3.4-1.5-.9-4.7 1.9-2.5 2.1-3.5 1.5-13.3-1.2-21.1-1.3-30.9-.3-46.2 1-17 .5-21.9-2.1-22.6-1.2-.3-1.9-1.8-2.3-5-.3-3.2-1.3-5.3-3.1-7-1.4-1.3-2.6-3-2.6-3.7 0-.7-.9-2.5-2-3.9s-2-3.6-2-5c0-1.3-.6-4.2-1.4-6.4-1-2.8-1.1-5.4-.5-9.2.5-3 .4-7.2-.1-9.5-2.6-12-3.2-14.1-5-16.4-1.1-1.3-2-3-2-3.8 0-.7-1.1-2.6-2.5-4.2-3.1-3.7-3.3-6.2-.5-5.5 1.6.4 2 0 2-1.7 0-1.9-.4-2.1-3-1.5-2.3.5-3 .3-3-.9 0-2.3-4.1-4.8-5.7-3.4-.7.6-1.3 1.7-1.3 2.4 0 3.3-1.8.8-5.4-7.3-5.7-12.8-7.6-19-7.7-24.7 0-2.8-.4-7.2-.8-9.8-.4-2.6-.5-5.1-.2-5.6s2.5-1.3 4.8-1.7c2.4-.4 4.5-1.1 4.9-1.6 1.1-1.9 3.2-.8 3.8 2.1.3 1.6 1.1 3 1.7 3 .8 0 .9-1.6.4-5.5-.7-5.9-.2-7.5 2.1-7.5 1.2 0 1.4.7.9 3zm-99.1 12.6c.3.9.6 2.6.6 4 0 1.3.9 2.9 2 3.6 1.9 1.2 2.8 3.8 1.2 3.8-1.4 0-6.2-8.3-6.2-10.7 0-2.6 1.5-3.1 2.4-.7zm116.9 8.3c-1.6 2.8-3.3 4.1-3.3 2.5 0-.8 4.4-6.2 4.8-5.9.1.1-.5 1.6-1.5 3.4zM376 752c0 .5-.5 1-1.1 1-.5 0-.7-.5-.4-1 .3-.6.8-1 1.1-1 .2 0 .4.4.4 1zm-5.2 9.4c-.2 1.6-.9 2-2.8 1.8-3.5-.4-3.9-1.3-2.3-5.2l1.5-3.5 1.9 2.4c1.1 1.4 1.9 3.4 1.7 4.5zm220.2.4c0 .5-.9 1.7-2 2.7-2 1.8-2.5 1.1-1.4-1.9.6-1.7 3.4-2.3 3.4-.8zm9 1c0 2-9.6 8-10.8 6.7-1.2-1.2 1.5-3.9 4.6-4.7 1.7-.5 3.4-1.3 3.7-1.8.8-1.2 2.5-1.3 2.5-.2zM447 774c0 1.8-9.2 5.6-10.9 4.5-.6-.3-2.4.1-4.1 1-3.4 1.7-5.4 1.7-4.2-.1.4-.6 3.8-3.4 7.7-6.2l7-5.1 2.2 2.1c1.3 1.2 2.3 2.9 2.3 3.8zm22 10.5c.5 1.4 1.9 3.8 3 5.3 1.5 2.1 12 26.4 12 27.9 0 .2-.4.3-1 .3-1 0-4.4-7.1-10-21-1.9-4.7-4.2-9.7-5.2-11.2-2.1-3-2.2-3.8-.8-3.8.6 0 1.5 1.1 2 2.5zm-7.6 23.1c4.4 5.7 7.3 11.9 16.6 34.9 4 9.9 9 21.4 11 25.5 2.1 4.1 4.4 9.7 5.1 12.4 1.2 4.7 1.1 5-1.1 6.8-1.2 1-3.5 1.8-5 1.8s-5.3 1.4-8.4 3c-4.2 2.3-7.1 3.1-11.8 3.3-7.1.2-5.6 1.9-13.7-15.3-14-30-23.2-51.2-24.1-55.9-1.5-7.9-.2-9.9 8.9-13.4 4.1-1.6 9-3.9 11-5.3 5.3-3.6 7.4-3.1 11.5 2.2zM487 810c0 .5-.4 1-1 1-.5 0-1-.5-1-1 0-.6.5-1 1-1 .6 0 1 .4 1 1zm105.5 7c-.3.5-1 1-1.6 1-.5 0-.9-.5-.9-1 0-.6.7-1 1.6-1 .8 0 1.2.4.9 1zM501 836.2c0 .6 2 5.5 4.4 10.7 5.7 12.4 6.2 14.1 4.1 14.1-.9 0-1.3-.4-1-1 .3-.5-1.7-5.5-4.4-11.1-5-9.8-6.2-13.9-4.1-13.9.6 0 1 .5 1 1.2zm4.8 21.3c1.4 3.1 1.5 3.5.4 3.5-.8 0-3.2-4.3-3.2-5.5 0-1.5 1.9-.1 2.8 2zm4.6 10.1c.9 2.2-.3 3.2-1.4 1.4-1.2-1.9-1.2-3-.1-3 .5 0 1.2.7 1.5 1.6zm99.4 11.4c0 3.3-.4 6.3-.9 6.6-.6.3-.7 2.3-.4 4.5.6 4.2-.1 8.2-1.4 7.5-1.2-.8-1.2-20.5-.1-22.7 1.9-3.4 2.8-2 2.8 4.1zm-114.2 14.4c.8 3.5.1 4.2-7.6 8.1-6.6 3.3-7.1 3.4-16.1 3-5.1-.3-9.7-.9-10.2-1.4-1.1-1.1 3-4.1 5.6-4.1 2 0 17.8-5.4 20.6-7 .9-.5 2.8-1 4.3-1 2.1 0 2.9.6 3.4 2.4zm13.2 22.8c2.8 5.7 8.1 19 10.2 25.3 2.4 7.3 12.6 31.8 16.5 39.5 3.8 7.6 4 10.5 1.1 13.5-2.1 2-3.5 2.5-7.8 2.5-3.4 0-6.7.7-9.1 2-5.1 2.7-7.3 2.6-8.5-.8-.5-1.5-1.8-5-2.8-7.7-.9-2.8-5.6-13.6-10.4-24-4.8-10.5-9.9-22.2-11.4-26.2-1.5-3.9-3.4-7.7-4.2-8.4-3.4-2.8-3.5-4.7-.7-7.4 1.5-1.4 3.2-2.5 3.7-2.5s3.8-1.4 7.3-3c3.4-1.7 7.1-3 8.1-3 .9 0 2.4-.5 3.2-1 2.3-1.5 3.6-1.2 4.8 1.2zm-65.2 1c.3 1.2 2.6 4.2 5 6.8 2.4 2.6 5 6.6 5.8 8.9.9 2.3 2.6 5.6 3.9 7.4 4.7 6.3 17.7 37.4 17.7 42.4 0 2-1.4 1.6-2.5-.9-1.4-3.1-3.5-3.5-3.5-.6 0 3.4 9.1 29.1 13 36.8 1.2 2.3 4.4 10.3 7.1 17.8 2.8 7.6 7.4 18.6 10.3 24.7 10.3 21.2 13.4 28 14 31.5.3 1.9.9 5.2 1.2 7.3.4 2.1 1.2 4.1 1.9 4.3 1 .4 1.9 9.4.9 9.4-.2 0-1.8-2.8-3.5-6.2-2.6-5.1-2.9-6.5-2-8.1.8-1.2.9-2.3.3-3-1.1-1.3-7.2-12.7-15.5-29.2-3.1-6.1-6.7-15.1-8.1-20.1-2.6-9.4-7-20.3-12.6-31.3-4.5-9.1-6-13.5-7-21.9-1-7.8-10.1-32.1-14.9-39.7-1.3-2.2-3.7-7.2-5.2-11-1.5-3.9-4.3-11-6.3-15.9-3.5-8.3-4-11.6-1.7-11.6.5 0 1.3 1 1.7 2.2zM616 954.9c0 .6-.4 1.3-1 1.6-.5.3-1-.1-1-.9 0-.9.5-1.6 1-1.6.6 0 1 .4 1 .9zm-63 10.5c0 .3-.4.8-1 1.1-.5.3-1 .1-1-.4 0-.6.5-1.1 1-1.1.6 0 1 .2 1 .4zm37 23.5c0 2.8 1.9 3.6 3.6 1.5 1.3-1.8 1.5-1.8 2.8-.1.8 1 2 1.5 3 1.1.9-.3 1.6-.2 1.6.4 0 .5-.8 1.2-1.8 1.4-1.2.3-2.7 2.8-4.1 6.7-1.2 3.3-2.6 6.1-3.1 6.1-2.4 0-10.7-21.7-9.5-24.8.5-1.4 1.2-1.1 4.1 2 1.9 2.1 3.4 4.7 3.4 5.7zm-47.2 10.8c.5 1 1.5 4 2.2 6.6 1.3 4.7 1.2 4.9-1.2 7.4-2.4 2.4-3.4 2.6-15.2 3l-12.6.6-2-4.4c-3.1-6.9-2.8-7.5 3.5-7.7 3-.1 5.7.3 6 .8 1.1 1.8 3.2 1 4.3-1.5.9-2 1.9-2.5 4.6-2.5 1.9 0 4.4-.9 5.7-2 3-2.4 3.6-2.4 4.7-.3zm75.6 25.3c4.7 2.1 5.7 3.6 3.1 4.6-1.1.5-6.1-1.8-9.4-4.2-.3-.3.8-2.4 1.3-2.4.2 0 2.4.9 5 2zm-77.1 24.1c2.6.5 6.5.9 8.6.9 2.2 0 4.8.7 5.9 1.7 1.2 1 3.9 6.4 6.2 12.1 2.2 5.6 5.7 13.7 7.9 18 3.6 7.2 5.6 15.8 4.2 18-.3.5-2.6 2-5.1 3.3-2.5 1.2-5.8 3.3-7.3 4.6-3.5 2.9-3.9 2.9-7.5-.2-2.1-1.7-3.9-5.1-6.2-11.7-1.7-5.1-4.5-11.9-6.2-15.1-5.4-10.8-11-24.2-11.2-27.1-.1-1.5-1-3.2-1.9-3.8-5-2.7.5-3.1 12.6-.7zm48.9 93.4c11.5 27.9 13.8 33.8 13.4 34.2-.6.6-29.7.5-30.3-.1-.2-.2.9-3.6 2.6-7.4 1.7-3.9 3.1-7.7 3.1-8.5 0-1.7-3.2-9.7-5.4-13.7-2.4-4.2-2.4-9.1-.1-10.4 1.1-.6 3.5-2.3 5.5-3.9 1.9-1.5 4.1-2.6 4.9-2.5.8.2 3.6 5.7 6.3 12.3z"/><path d="M545.5 99.9c-10.1 1-14.5 2.4-19.8 6.5-2.3 1.8-7.8 5.5-12.3 8.4-5.7 3.7-8.5 6.2-9.7 8.7-2.4 5.1-2.2 6.1 2.2 8.7 2.2 1.3 8.1 5.1 13.1 8.5 5 3.5 9.8 6.3 10.6 6.3 2.1 0 1.7-2.6-1.1-7-1.4-2.2-2.8-6-3.1-8.3-.6-4-.4-4.5 3-7.5 4.1-3.6 11.5-7.6 19.1-10.3 4.1-1.4 4.5-1.8 2.2-1.8-4.1-.1-17.3 5.3-24.2 9.9-3.3 2.2-6.3 4-6.7 4-.4 0-.8-1-1-2.3-.4-2.3-.8-2.4-4.5-1.2-1.4.4-2.3.2-2.3-.4 0-1.4 4.6-4.7 23.9-17.3 3.7-2.4 20-3.5 27-1.8 6.1 1.4 7.6.8 3.2-1.4-4-2.1-9.7-2.6-19.6-1.7zm-23.1 34.7c.4 1 .1 1.4-.6 1.2-1.5-.5-2.3-2.8-1-2.8.5 0 1.3.7 1.6 1.6z"/><path d="M537.5 138.9c-.3.5-.1 1.2.5 1.6.5.3 1-.1 1-.9 0-1.8-.6-2.1-1.5-.7zM530.6 210.9c-1.6.3-3.1 1.2-3.4 2-.4 1.1.1 1.2 1.9.7 1.3-.4 3.4-1 4.7-1.3 1.2-.3 2.2-.9 2.2-1.4 0-1-1-1-5.4 0zM599.3 256.2c-3 1.5-2.9 3.8.1 3.8 2.6 0 5.1-2.4 4.1-4-.8-1.2-1.3-1.2-4.2.2zM550.2 329c-1.8 3-1.6 9.2.4 8.8 2.5-.5 4.8-5.2 4-8.2-.8-3.1-2.6-3.4-4.4-.6zM476.5 339c-.3.5.1 1 .9 1 .9 0 1.6-.5 1.6-1 0-.6-.4-1-.9-1-.6 0-1.3.4-1.6 1zM549 364c0 .5.5 1 1 1 .6 0 1-.5 1-1 0-.6-.4-1-1-1-.5 0-1 .4-1 1zM550.2 371.2c-.7.7-1.2 2-1.2 3 0 .9-.5 2.9-1.2 4.3-1.9 4.3.4 5.2 4.3 1.7 3.1-2.8 3.2-3.1 2-6.1-1.6-3.8-2.4-4.4-3.9-2.9zM527.4 379.4c-.3 1.4-.2 3.5.2 4.8.4 1.3.7 2.7.5 3.2-.1.5.1 1.6.5 2.5 1.1 2.8 1.9-1.1 1.6-7.4-.4-5.7-1.7-7.2-2.8-3.1zM551.2 384.1c.2.6.8 1 1.3 1s1.1-.4 1.3-1c.2-.6-.4-1.1-1.3-1.1s-1.5.5-1.3 1.1zM523.5 390.9c-.3.5-.1 1.2.5 1.6.5.3 1-.1 1-.9 0-1.8-.6-2.1-1.5-.7zM558 392.5c0 .8.5 1.5 1 1.5.6 0 1-.7 1-1.5s-.4-1.5-1-1.5c-.5 0-1 .7-1 1.5zM546.6 392.9c-.4.7-.5 1.5-.2 1.8.9.9 1.9-.4 1.4-1.8-.4-1.1-.6-1.1-1.2 0zM515.4 397.3c-.8 2.3 0 9 1.2 9.4 1.3.4 1.7-9.4.3-10.2-.5-.4-1.2 0-1.5.8zM522.3 398.7c-.7 1.8 2.5 8.4 4.5 9.1 1.6.5 1.5-1.4-.4-6.5-1.8-4.5-3.1-5.4-4.1-2.6zM530.6 397.9c-.4.7-.5 1.5-.2 1.8.9.9 1.9-.4 1.4-1.8-.4-1.1-.6-1.1-1.2 0zM543 399c0 .5.5 1 1 1 .6 0 1-.5 1-1 0-.6-.4-1-1-1-.5 0-1 .4-1 1zM507.2 401.6c.2 1.5.9 2.9 1.6 3.2 1 .3 1.3-.4 1-2.4-.2-1.5-.9-2.9-1.6-3.2-1-.3-1.3.4-1 2.4zM547.4 407.1c-.3.6-.2 1.5.4 2.1.7.7 1.4.3 2.1-1.1 1-1.7.9-2.1-.3-2.1-.8 0-1.8.5-2.2 1.1zM531.6 418.9c-.7 1.1 1.8 3.3 2.7 2.4.4-.3.7-1.2.7-2 0-1.5-2.6-1.8-3.4-.4zM548.5 420c.3.5.8 1 1.1 1 .2 0 .4-.5.4-1 0-.6-.5-1-1.1-1-.5 0-.7.4-.4 1zM525.9 425.4c-.9 1.8-.7 3.1.6 5.7 1.7 3.1 1.8 3.2 3.1 1.4 1.7-2.4 1.7-5.5 0-7.8-1.8-2.3-2.4-2.2-3.7.7zM521 431.7c0 3 1.2 6.3 2.2 6.3 1.4 0 .5-7.3-.9-7.8-.7-.2-1.3.4-1.3 1.5zM536 433c0 .5.5 1 1 1 .6 0 1-.5 1-1 0-.6-.4-1-1-1-.5 0-1 .4-1 1zM540 438c0 .5.5 1 1 1 .6 0 1-.5 1-1 0-.6-.4-1-1-1-.5 0-1 .4-1 1zM549.5 439.1c-.4.6-.3 1.5.3 2.1.6.6 1.1.4 1.5-.6.7-1.8-.9-3.1-1.8-1.5zM560 449c0 .5.5 1 1 1 .6 0 1-.5 1-1 0-.6-.4-1-1-1-.5 0-1 .4-1 1zM548 456.9c0 1.7.5 3.1 1 3.1.6 0 1-1.1 1-2.4 0-1.4-.4-2.8-1-3.1-.6-.4-1 .7-1 2.4zM737.1 479c-.1 2.1 21.2 37.1 29 47.5 11.9 16 15.9 25.8 16.4 40 .3 9.9.3 10 2.6 9.7 4.2-.6 5.8-3.2 6.1-9.9.2-4.5-.2-6.6-1.3-8-.9-1-3.7-5.9-6.1-10.8-2.5-5-7.2-14.3-10.4-20.8-6.4-12.9-14.8-24.7-25.8-36.6-3.9-4.2-7.9-8.7-8.8-10.1-1-1.5-1.7-1.9-1.7-1zM552 491.1c0 3.8 2.4 3.5 2.8-.4.2-1.9-.1-2.7-1.2-2.7-1.1 0-1.6 1-1.6 3.1zM443.3 541.7c-2.4.2-4.3.9-4.3 1.5 0 1.4 15.8.4 17.3-1.1 1.1-1.1-3.4-1.2-13-.4zM428.8 542.7c-1 .2-1.8.9-1.8 1.5 0 .5.7.7 1.6.4.9-.3 2.2-.6 3-.6.8 0 1.4-.5 1.4-1 0-1-1.2-1.1-4.2-.3zM416 545c0 .5.9 1 2.1 1 1.1 0 1.7-.5 1.4-1-.3-.6-1.3-1-2.1-1s-1.4.4-1.4 1zM441 582c0 .5 1.1 1 2.5 1s2.5-.5 2.5-1c0-.6-1.1-1-2.5-1s-2.5.4-2.5 1zM771.1 592.5c-1.2 2.6-2.1 5.3-2.1 5.9.1 1.9 3.9-3.8 4.6-6.7 1-4.6-.3-4.2-2.5.8zM760.2 619.2c-.7.7-1.2 3-1.2 5.3 0 3.6.6 4.7 5.3 9.3 5.5 5.5 7.1 6.1 10.2 3.8 1.8-1.3 1.7-1.5-1.6-2.9-4.4-1.8-7.9-6.1-7.9-9.6 0-6.2-2-8.7-4.8-5.9zM802 622.4c0 .9.5 1.6 1 1.6.6 0 1-.4 1-.9 0-.6-.4-1.3-1-1.6-.5-.3-1 .1-1 .9zM210 243.6c0 .8.5 1.2 1 .9.6-.3 1-1 1-1.6 0-.5-.4-.9-1-.9-.5 0-1 .7-1 1.6zM192 265.1c0 .5.5.7 1 .4.6-.3 1-.8 1-1.1 0-.2-.4-.4-1-.4-.5 0-1 .5-1 1.1zM330 640.4c0 1.3 3.1 4.6 4.3 4.6.4 0 .2-1.1-.5-2.4-1.2-2.8-3.8-4.3-3.8-2.2zM403 654.9c0 2.5 6.6 18 10.3 24.1 4.2 6.9 3.4 1.9-1.1-7.6-2.1-4.3-4.7-10.1-5.7-12.7-2-5.3-3.5-6.9-3.5-3.8zM578 1076.1c0 3.4 11.8 33.9 13.2 33.9 1.2 0 1-1.9-.7-4.8-2-3.7-9.5-22.7-9.5-24.4-.1-2-2.9-6.6-3-4.7zM548 278.4c-.5 1.5-1 3.4-1 4.2 0 .8-1.1 1.9-2.5 2.4-3.1 1.2-3.2 2.6-.4 3.5 1.4.5 3 0 4.8-1.3 2.1-1.6 2.6-2.7 2.4-5.8-.4-5.1-1.9-6.5-3.3-3zM615.5 277c-.3.6.1 1.3 1 1.6 1.9.8 3 0 2-1.5-.8-1.4-2.2-1.4-3-.1zM657 301c0 .5.5 1 1 1 .6 0 1-.5 1-1 0-.6-.4-1-1-1-.5 0-1 .4-1 1zM664.9 300.8c-.1.7-.2 1.8-.3 2.4-.3 2.1 1.7 5.9 2.8 5.5 1.5-.5.8-5.8-1-7.7-1-1-1.4-1.1-1.5-.2zM593 376c0 .5.5 1 1 1 .6 0 1-.5 1-1 0-.6-.4-1-1-1-.5 0-1 .4-1 1zM687 386.4c0 .9.5 1.6 1 1.6.6 0 1-.4 1-.9 0-.6-.4-1.3-1-1.6-.5-.3-1 .1-1 .9zM459.5 394.9c-.8 1.5.3 3.1 2.1 3.1.9 0 1.4-.7 1.2-1.7-.4-2-2.4-2.8-3.3-1.4zM341 584.7c.1 2.1.6 4.7 1.3 5.9 2.2 3.9 5.7 7.7 6.4 7.1.3-.4-.1-1.5-1-2.5-1-1-1.7-2.2-1.7-2.6 0-2.3-3.3-11.6-4.1-11.6-.5 0-.9 1.7-.9 3.7zM404.4 752.5c-1.8 1.4-1.8 1.4.3 1.5 2.3 0 3.9-1.5 2.5-2.4-.5-.3-1.8.1-2.8.9zM595.1 897.9c-1.7 1.1-.7 4.1 1.3 4.1 1.3 0 3.6-2.8 3.6-4.4 0-.9-3.3-.7-4.9.3zM448.7 928c.3 1.1.7 2 .9 2 .2 0 .4-.9.4-2s-.4-2-.9-2-.7.9-.4 2z"/></svg>